.
 
http://www.scenetime.com    -   SceneTime [ We been having it ] !!!


How come you press harder on a remote control when you know the battery is dead? so you better seed to get speed ;)

        Seed back for speed


...................................NFO:.................................................[IMG]http://i184.photobucket.com/albums/x292/miff2001/king.png[/IMG]

[IMG]http://i184.photobucket.com/albums/x292/miff2001/INFO.png[/IMG]


General
Format                           : Matroska
File size                        : 311 MiB
Duration                         : 1h 25mn
Overall bit rate                 : 509 Kbps
Movie name                       : Avidemux
Writing application              : Lavf52.108.0
Writing library                  : Lavf52.108.0
AUTHOR                           : Avidemux

Video
ID                               : 1
Format                           : AVC
Format/Info                      : Advanced Video Codec
Format profile                   : High@L2.1
Format settings, CABAC           : Yes
Format settings, ReFrames        : 4 frames
Format settings, GOP             : M=1, N=6
Codec ID                         : V_MPEG4/ISO/AVC
Duration                         : 1h 25mn
Bit rate                         : 371 Kbps
Width                            : 512 pixels
Height                           : 384 pixels
Display aspect ratio             : 4:3
Frame rate mode                  : Variable
Frame rate                       : 25.000 fps
Color space                      : YUV
Chroma subsampling               : 4:2:0
Bit depth                        : 8 bits
Scan type                        : Progressive
Bits/(Pixel*Frame)               : 0.075
Stream size                      : 226 MiB (73%)
Writing library                  : x264 core 115 r1947 b5a8ad7
Language                         : English

Audio
ID                               : 2
Format                           : AC-3
Format/Info                      : Audio Coding 3
Mode extension                   : CM (complete main)
Codec ID                         : A_AC3
Duration                         : 1h 25mn
Bit rate mode                    : Constant
Bit rate                         : 128 Kbps
Channel(s)                       : 2 channels
Channel positions                : Front: L R
Sampling rate                    : 48.0 KHz
Bit depth                        : 16 bits
Compression mode                 : Lossy
Delay relative to video          : -40ms
Stream size                      : 78.1 MiB (25%)
Language                         : English
 
http://www.imdb.com/title/tt0079406/


[IMG]http://i184.photobucket.com/albums/x292/miff2001/SCREEN-1.png[/IMG]

[IMG]http://i184.photobucket.com/albums/x292/miff2001/King-1.jpg[/IMG]


[IMG]http://i184.photobucket.com/albums/x292/miff2001/PR3D.png[/IMG] [IMG]http://i184.photobucket.com/albums/x292/miff2001/DJJOHNNYB.png[/IMG]
[IMG]http://i184.photobucket.com/albums/x292/miff2001/sig-2.png[/IMG]